HIERARCHY
ROOT Hips
{
	OFFSET 0.000000 95.729000 0.000000
	CHANNELS 6 Xposition Yposition Zposition Yrotation Xrotation Zrotation
	JOINT RightUpLeg
	{
		OFFSET -9.625000 -1.639000 0.000000
		CHANNELS 3 Yrotation Xrotation Zrotation
		JOINT RightLeg
		{
			OFFSET 0.000000 -41.481000 0.000000
			CHANNELS 3 Yrotation Xrotation Zrotation
			JOINT RightFoot
			{
				OFFSET 0.000000 -43.120000 0.000000
				CHANNELS 3 Yrotation Xrotation Zrotation
				End Site
				{
					OFFSET 0.000000 -7.850000 17.850000
				}
			}
		}
	}
	JOINT LeftUpLeg
	{
		OFFSET 9.625000 -1.639000 0.000000
		CHANNELS 3 Yrotation Xrotation Zrotation
		JOINT LeftLeg
		{
			OFFSET 0.000000 -43.120000 0.000000
			CHANNELS 3 Yrotation Xrotation Zrotation
			JOINT LeftFoot
			{
				OFFSET 0.000000 -43.120000 0.000000
				CHANNELS 3 Yrotation Xrotation Zrotation
				End Site
				{
					OFFSET 0.000000 -7.850000 17.850000
				}
			}
		}
	}
	JOINT Spine
	{
		OFFSET 0.000000 16.395000 0.000000
		CHANNELS 3 Yrotation Xrotation Zrotation
		JOINT Spine1
		{
			OFFSET 0.000000 10.023000 0.000000
			CHANNELS 3 Yrotation Xrotation Zrotation
			JOINT Spine2
			{
				OFFSET 0.000000 10.437000 0.000000
				CHANNELS 3 Yrotation Xrotation Zrotation
				JOINT Spine3
				{
					OFFSET 0.000000 10.023000 0.000000
					CHANNELS 3 Yrotation Xrotation Zrotation
					JOINT Neck
					{
						OFFSET 0.000000 10.713000 0.000000
						CHANNELS 3 Yrotation Xrotation Zrotation
						JOINT Head
						{
							OFFSET 0.000000 9.720000 0.000000
							CHANNELS 3 Yrotation Xrotation Zrotation
							End Site
							{
								OFFSET 0.000000 16.450000 0.000000
							}
						}
					}
					JOINT RightShoulder
					{
						OFFSET -3.275000 7.142000 0.000000
						CHANNELS 3 Yrotation Xrotation Zrotation
						JOINT RightArm
						{
							OFFSET -13.100000 0.000000 0.000000
							CHANNELS 3 Yrotation Xrotation Zrotation
							JOINT RightForeArm
							{
								OFFSET -27.250000 0.000000 0.000000
								CHANNELS 3 Yrotation Xrotation Zrotation
								JOINT RightHand
								{
									OFFSET -26.750000 0.000000 0.000000
									CHANNELS 3 Yrotation Xrotation Zrotation
									End Site
									{
										OFFSET -3.479000 0.532000 0.778000
									}
								}
							}
						}
					}
					JOINT LeftShoulder
					{
						OFFSET 3.275000 7.142000 0.000000
						CHANNELS 3 Yrotation Xrotation Zrotation
						JOINT LeftArm
						{
							OFFSET 13.100000 0.000000 0.000000
							CHANNELS 3 Yrotation Xrotation Zrotation
							JOINT LeftForeArm
							{
								OFFSET 27.250000 0.000000 0.000000
								CHANNELS 3 Yrotation Xrotation Zrotation
								JOINT LeftHand
								{
									OFFSET 26.750000 0.000000 0.000000
									CHANNELS 3 Yrotation Xrotation Zrotation
									End Site
									{
										OFFSET 3.479000 0.532000 0.778000
									}
								}
							}
						}
					}
				}
			}
		}
	}
}
MOTION
Frames: 26
Frame Time: 0.01
12.97 94.14 7.8 0.0 5.64 0.0 3.69 -15.42 -6.75 0.0 26.57 0.0 -4.56 -14.65 6.74 13.49 -21.49 3.79 -0.0 30.41 0.0 5.26 -10.61 -1.64 4.96 -2.93 -4.06 1.25 -0.73 -0.99 2.12 -1.17 -1.65 0.18 0.66 0.65 0.19 0.67 0.65 5.89 11.31 12.43 32.26 -3.9 -16.02 56.44 -56.32 -7.78 10.15 20.66 -9.49 -14.35 12.12 -16.73 2.03 -3.54 -5.94 -30.53 5.44 -70.95 -2.42 -3.99 -0.82 -8.39 35.59 11.11
13.19 94.0 7.8 0.0 6.21 0.0 4.28 -16.71 -6.84 0.0 27.66 0.0 -4.37 -14.92 6.77 13.72 -23.14 3.78 0.0 32.17 0.0 4.91 -9.77 -1.54 5.14 -3.09 -4.08 1.3 -0.77 -0.99 2.19 -1.24 -1.66 0.16 0.66 0.64 0.17 0.66 0.64 5.61 11.23 12.31 31.82 -3.48 -16.54 55.2 -57.1 -7.27 10.14 20.21 -9.96 -14.25 12.02 -17.0 0.82 -2.28 -5.76 -30.11 4.73 -70.47 -2.1 -3.25 -0.82 -8.9 34.77 10.99
13.4 93.78 7.82 0.0 6.79 0.0 4.96 -18.13 -6.86 -0.0 28.98 0.0 -4.24 -15.36 6.82 13.74 -25.08 3.91 -0.0 34.45 -0.0 4.69 -8.96 -1.42 4.71 -2.54 -3.66 1.19 -0.63 -0.89 2.0 -1.01 -1.49 0.21 0.6 0.6 0.22 0.6 0.6 6.07 10.05 11.49 32.16 -3.92 -17.96 53.97 -57.79 -6.53 10.11 19.78 -10.35 -14.14 11.91 -17.2 1.17 -2.83 -6.27 -30.26 4.68 -70.28 -2.26 -3.29 -0.78 -9.09 34.67 10.75
13.59 93.41 7.86 0.0 7.55 0.0 5.32 -20.08 -6.89 -0.0 30.89 -0.0 -3.71 -16.08 6.88 13.72 -27.52 4.03 -0.0 37.31 -0.0 4.63 -8.21 -1.21 4.55 -2.48 -3.36 1.15 -0.62 -0.82 1.93 -0.99 -1.37 0.23 0.57 0.57 0.24 0.57 0.57 6.24 9.51 10.98 32.03 -3.91 -18.69 52.67 -58.41 -5.74 11.42 19.6 -9.96 -15.37 11.87 -17.6 1.05 -2.74 -6.48 -30.35 4.61 -70.16 -2.54 -3.35 -0.74 -9.22 34.59 10.7
13.72 92.95 7.87 0.0 8.22 0.0 5.5 -22.11 -6.98 0.0 33.16 0.0 -2.95 -16.96 6.99 13.17 -29.95 4.33 -0.0 40.48 -0.0 4.7 -7.63 -1.28 4.36 -2.39 -3.02 1.1 -0.6 -0.74 1.84 -0.96 -1.23 0.25 0.54 0.55 0.26 0.54 0.55 6.42 9.03 10.48 31.86 -3.95 -19.29 53.67 -58.7 -6.39 8.5 19.26 -11.4 -13.87 11.71 -17.54 0.98 -2.66 -6.7 -30.47 4.66 -70.13 -3.06 -3.42 -0.69 -9.31 34.53 10.74
13.79 92.37 7.84 0.0 8.85 0.0 5.7 -24.31 -7.11 -0.0 35.91 -0.0 -2.09 -18.02 7.3 12.53 -32.45 4.71 0.0 43.96 0.0 4.89 -7.03 -1.39 4.82 -2.77 -3.07 1.21 -0.69 -0.75 2.04 -1.12 -1.25 0.22 0.55 0.56 0.23 0.55 0.56 5.89 9.27 10.66 31.07 -3.78 -18.98 49.02 -59.12 -3.08 9.82 18.88 -11.24 -13.75 11.55 -17.74 -0.15 -1.65 -6.32 -30.47 4.7 -70.03 -3.8 -3.47 -0.66 -9.35 34.48 10.82
13.91 91.46 7.8 0.0 9.92 0.0 6.33 -27.74 -7.41 0.0 40.1 0.0 -1.28 -19.33 7.93 12.2 -35.5 4.96 0.0 47.82 -0.0 5.51 -7.38 -1.62 3.96 -2.22 -2.22 0.99 -0.56 -0.54 1.67 -0.91 -0.91 0.3 0.48 0.49 0.31 0.48 0.49 6.93 7.86 9.43 33.47 -4.67 -21.25 43.66 -59.35 0.72 9.65 18.35 -11.5 -13.61 11.31 -17.97 0.48 -2.18 -7.27 -29.79 3.93 -69.69 -4.45 -2.44 -0.68 -9.33 34.41 11.1
14.04 90.46 7.77 0.0 10.83 0.0 6.43 -30.8 -7.57 -0.0 43.98 0.0 -0.45 -20.94 7.88 10.31 -39.21 5.93 0.0 52.64 -0.0 4.89 -5.72 -1.55 3.71 -2.29 -1.89 0.93 -0.57 -0.46 1.56 -0.94 -0.77 0.32 0.45 0.47 0.32 0.45 0.47 7.08 7.34 9.04 33.64 -4.94 -21.82 40.97 -59.35 2.87 9.42 18.03 -11.66 -13.64 11.17 -18.12 0.2 -1.9 -7.51 -30.85 4.84 -69.48 -5.9 -3.55 -0.54 -9.17 34.36 11.63
14.11 89.46 7.61 0.0 11.62 0.0 6.53 -34.06 -7.88 0.0 48.37 0.0 0.39 -21.27 8.81 9.84 -42.06 6.33 0.0 56.36 0.0 4.94 -5.13 -1.24 4.0 -2.77 -1.95 1.0 -0.69 -0.47 1.68 -1.14 -0.79 0.31 0.45 0.48 0.31 0.45 0.48 6.89 7.36 9.12 31.17 -4.4 -20.87 41.21 -59.8 3.25 9.23 17.76 -11.81 -13.5 10.97 -18.34 -0.95 -0.8 -7.24 -31.1 4.79 -69.01 -6.76 -3.65 -0.53 -8.91 34.29 12.44
14.13 88.36 7.32 0.0 12.3 0.0 6.29 -37.12 -8.19 -0.0 52.72 0.0 1.68 -21.83 9.02 8.54 -44.6 6.99 -0.0 60.1 -0.0 5.44 -4.59 -1.43 4.32 -3.17 -2.1 1.08 -0.8 -0.5 1.82 -1.31 -0.84 0.26 0.45 0.5 0.26 0.45 0.5 6.04 7.4 9.44 29.72 -3.63 -20.0 40.19 -60.22 4.13 9.04 17.46 -11.98 -13.37 10.7 -18.55 -1.9 0.33 -7.13 -30.62 4.02 -68.44 -7.18 -2.71 -0.53 -8.52 34.18 13.38
14.22 87.18 7.03 0.0 12.59 0.0 5.89 -39.73 -8.38 0.0 56.99 -0.0 2.81 -22.2 9.37 7.61 -46.16 7.64 -0.0 63.02 -0.0 5.86 -6.08 -2.15 3.57 -2.32 -1.43 0.89 -0.58 -0.34 1.5 -0.96 -0.58 0.32 0.38 0.44 0.32 0.38 0.44 6.81 6.07 8.31 30.24 -3.93 -21.11 37.99 -60.56 6.01 8.62 17.24 -12.02 -13.23 10.46 -18.75 -1.45 -0.31 -8.03 -29.88 2.97 -68.03 -7.36 -1.35 -0.43 -8.15 34.08 14.17
14.38 85.94 6.75 0.0 14.18 0.0 6.62 -43.21 -8.99 -0.0 60.7 -0.0 3.19 -23.43 9.37 6.55 -49.5 8.2 0.0 66.42 0.0 6.09 -5.97 -2.43 3.15 -2.23 -0.88 0.79 -0.56 -0.21 1.32 -0.93 -0.35 0.37 0.3 0.37 0.38 0.3 0.37 7.43 4.65 6.98 30.56 -4.33 -22.23 35.6 -60.35 8.05 8.23 17.01 -11.99 -13.25 10.23 -18.88 -1.36 -1.0 -8.96 -29.13 1.94 -67.69 -7.51 -0.24 -0.31 -7.92 33.33 14.44
15.31 83.35 6.56 0.0 15.43 0.0 6.4 -48.26 -8.71 0.0 67.45 0.0 3.99 -26.42 8.3 1.9 -54.33 11.46 -0.0 73.65 -0.0 3.55 -2.21 -0.52 3.23 -2.98 -0.86 0.81 -0.75 -0.2 1.35 -1.25 -0.34 0.38 0.29 0.37 0.38 0.29 0.37 7.47 4.5 7.03 29.4 -3.11 -20.34 30.56 -60.61 12.56 7.79 16.44 -12.26 -13.08 9.49 -19.43 -3.15 1.37 -8.83 -32.85 3.12 -65.14 -9.03 -5.4 -0.92 -7.22 33.41 15.9
16.02 81.14 5.76 0.0 16.09 0.0 8.06 -53.18 -10.1 -0.0 74.88 -0.0 6.14 -24.19 10.81 0.29 -57.18 13.06 -0.0 78.14 -0.0 3.05 -3.01 -0.39 2.84 -1.54 0.15 0.71 -0.39 0.05 1.18 -0.65 0.07 0.43 0.16 0.26 0.43 0.15 0.26 8.05 2.18 4.93 29.79 -4.51 -22.59 28.71 -60.88 14.5 9.27 17.19 -12.63 -13.08 9.49 -19.43 -3.17 -0.79 -10.32 -33.07 2.69 -64.54 -9.34 -5.91 -1.02 -6.95 33.4 17.07
16.72 79.24 5.63 0.0 16.32 0.0 8.22 -55.9 -10.12 0.0 79.15 0.0 6.45 -25.47 10.41 -1.5 -59.28 14.82 0.0 81.88 0.0 2.9 -4.68 -0.95 2.76 -1.48 0.27 0.69 -0.38 0.07 1.15 -0.63 0.12 0.45 0.15 0.25 0.45 0.15 0.25 8.32 2.13 4.6 29.56 -4.37 -22.18 26.92 -60.85 16.39 10.74 17.65 -13.15 -13.08 9.49 -19.43 -3.1 -1.11 -10.48 -33.07 2.69 -64.54 -9.34 -5.91 -1.02 -6.95 33.4 17.07
17.62 76.45 5.3 0.0 17.62 0.0 8.86 -62.1 -11.43 0.0 86.56 0.0 8.14 -22.99 11.49 -7.47 -64.94 20.25 0.0 88.86 0.0 0.57 -0.16 1.61 2.52 -0.11 1.36 0.63 -0.03 0.34 1.05 -0.06 0.57 0.53 0.04 0.11 0.53 0.04 0.11 9.59 0.41 1.94 28.56 -2.34 -20.98 18.63 -59.9 25.47 6.61 16.22 -12.07 -12.94 7.63 -20.16 -5.61 -0.13 -12.21 -34.56 0.92 -60.21 -13.89 -9.88 -1.56 -4.6 32.88 22.68
18.35 73.73 5.24 0.0 17.9 0.0 10.04 -65.71 -12.27 -180.0 87.98 -180.0 8.19 -23.79 11.25 -12.77 -68.12 25.04 180.0 86.02 180.0 -0.13 -0.83 1.32 2.48 0.19 1.69 0.62 0.04 0.42 1.04 0.06 0.7 0.56 0.05 0.07 0.56 0.05 0.07 10.21 0.69 1.34 28.29 -1.97 -20.11 19.95 -59.81 23.85 7.29 16.28 -12.71 -14.73 8.25 -17.64 -5.86 -0.75 -12.57 -34.73 1.04 -59.75 -15.64 -10.86 -1.76 -3.89 32.84 24.08
18.96 71.22 5.26 0.0 17.97 0.0 11.44 -68.7 -13.32 180.0 83.25 180.0 8.15 -24.71 10.94 -16.85 -70.31 29.05 180.0 81.98 180.0 -0.46 -2.37 1.21 2.37 0.15 1.76 0.59 0.03 0.44 0.99 0.04 0.73 0.58 0.06 0.06 0.58 0.06 0.07 10.53 0.89 1.26 28.34 -1.6 -19.61 16.41 -58.87 28.39 5.11 16.3 -10.94 -11.45 6.53 -22.34 -5.87 -0.76 -12.56 -34.73 1.04 -59.75 -15.64 -10.86 -1.76 -3.89 32.84 24.08
19.72 68.22 5.28 0.0 17.98 0.0 14.07 -72.3 -15.29 180.0 77.71 180.0 7.79 -25.23 10.68 -25.34 -73.36 37.81 180.0 76.75 180.0 -1.5 -1.63 1.52 2.69 1.32 2.12 0.68 0.33 0.52 1.14 0.53 0.87 0.6 0.02 0.02 0.6 0.02 0.02 10.82 0.31 0.36 28.3 -0.61 -17.91 12.17 -58.3 33.7 5.57 16.61 -12.12 -12.32 5.93 -20.73 -7.01 0.21 -13.37 -35.24 -0.5 -56.7 -19.96 -14.37 -2.5 -2.28 32.92 28.23
20.22 65.74 5.21 0.0 18.01 0.0 16.6 -75.44 -17.72 -180.0 73.14 -180.0 7.97 -24.42 10.36 -35.87 -74.99 48.19 -180.0 72.94 -180.0 -2.44 -0.9 1.59 2.79 1.6 2.29 0.7 0.4 0.57 1.18 0.64 0.95 0.58 0.01 0.0 0.59 0.01 0.0 10.58 0.19 0.09 28.33 0.05 -16.65 10.56 -57.71 35.94 3.56 16.74 -9.54 -10.88 5.26 -23.58 -7.14 0.05 -13.52 -35.71 -0.68 -56.07 -21.69 -15.56 -2.63 -1.6 32.96 29.4
20.64 63.52 5.11 0.0 17.86 0.0 19.91 -77.69 -20.77 180.0 69.34 180.0 8.14 -24.63 10.19 -45.69 -75.51 57.95 -180.0 69.73 -180.0 -3.61 -1.25 1.17 2.63 1.68 2.34 0.66 0.42 0.58 1.12 0.68 0.97 0.64 0.07 -0.02 0.64 0.07 -0.02 11.63 1.32 -0.24 28.47 0.47 -16.04 8.87 -56.3 39.46 2.91 16.75 -9.16 -10.41 4.7 -24.19 -6.91 0.47 -13.55 -35.89 -1.16 -55.31 -23.5 -16.15 -2.58 -0.81 33.18 30.28
20.99 61.54 5.05 0.0 17.8 0.0 24.14 -79.55 -24.65 180.0 66.13 180.0 8.04 -25.43 10.11 -54.25 -75.63 66.55 -180.0 66.93 -180.0 -4.31 -2.12 0.58 2.56 1.71 2.34 0.65 0.43 0.58 1.09 0.7 0.97 0.65 0.07 -0.02 0.65 0.07 -0.02 11.84 1.49 -0.3 28.58 0.91 -15.49 8.9 -56.02 39.89 2.7 16.63 -9.06 -10.25 4.5 -24.45 -6.82 0.63 -13.57 -35.87 -1.34 -55.06 -24.12 -16.29 -2.57 -0.37 33.09 30.65
21.36 59.46 4.94 0.0 17.49 0.0 29.88 -81.45 -30.38 180.0 62.66 180.0 8.65 -24.84 10.55 -66.62 -75.13 78.61 -180.0 63.94 180.0 -6.41 -0.85 1.26 3.36 2.81 2.97 0.85 0.7 0.73 1.45 1.15 1.22 0.62 0.03 -0.1 0.63 0.03 -0.1 11.34 0.89 -1.66 27.52 2.24 -11.36 11.93 -53.79 39.7 0.7 17.76 -7.8 -9.34 3.79 -25.53 -7.91 -0.34 -13.83 -35.82 -2.45 -53.88 -28.21 -18.57 -2.47 0.11 34.92 32.71
21.8 57.26 4.81 0.0 17.12 0.0 36.73 -83.03 -36.76 180.0 59.26 -180.0 8.09 -25.88 10.92 -75.32 -74.18 87.41 -180.0 61.05 -180.0 -7.36 -1.05 0.99 3.57 3.25 3.19 0.91 0.81 0.78 1.55 1.33 1.3 0.62 -0.0 -0.12 0.62 0.0 -0.12 11.27 0.44 -2.07 27.15 2.48 -9.83 13.83 -52.19 39.75 -0.17 18.49 -7.48 -8.94 1.93 -27.87 -8.07 -0.32 -14.02 -36.01 -2.86 -53.28 -28.66 -18.77 -2.8 -0.63 34.47 33.37
22.46 54.74 4.6 0.0 17.12 0.0 57.06 -85.26 -56.54 180.0 55.42 180.0 8.29 -25.95 10.9 -84.29 -72.74 97.49 -180.0 57.9 -180.0 -9.31 -1.64 0.68 5.15 3.54 2.99 1.31 0.89 0.72 2.21 1.45 1.2 0.58 -0.07 -0.13 0.58 -0.07 -0.13 10.48 -0.87 -2.45 28.79 4.17 -5.18 18.16 -48.09 40.49 -2.49 20.37 -6.17 -7.93 2.54 -24.75 -10.61 -0.83 -13.4 -36.01 -2.86 -53.28 -33.86 -23.33 0.07 0.09 35.78 32.9
22.9 52.21 4.46 0.0 15.03 0.0 57.55 -86.46 -58.22 180.0 51.39 180.0 7.23 -25.36 11.13 -87.29 -70.12 101.29 180.0 54.96 180.0 -12.91 -1.85 1.37 4.4 4.73 3.39 1.13 1.19 0.81 1.93 1.96 1.36 0.56 -0.09 -0.13 0.56 -0.09 -0.13 10.12 -1.28 -2.45 29.24 4.55 -4.39 17.8 -48.38 39.57 -2.02 21.72 -3.7 -8.22 1.65 -25.61 -8.84 -0.21 -13.7 -35.3 -9.99 -41.79 -36.23 -25.0 -3.1 2.71 39.59 23.05
